<svg width="31" height="31" viewBox="0 0 31 31" fill="none" xmlns="http://www.w3.org/2000/svg">
<path d="M30.475 0.177508C30.427 0.127151 30.3312 0.127151 30.2353 0.177508L20.5069 4.55854L10.7785 0.177508H10.7306H10.6826H10.6347H10.5868L0.810428 4.55854C0.714581 4.6089 0.666656 4.70961 0.666656 4.75997V29.888C0.666656 29.9887 0.714578 30.039 0.762502 30.0894C0.810425 30.1397 0.85835 30.1397 0.906273 30.1397C0.954196 30.1397 0.954195 30.1397 1.00212 30.1397L10.7306 25.8091L20.459 30.1397C20.5069 30.1397 20.5069 30.1397 20.5548 30.1397C20.5548 30.1397 20.5548 30.1397 20.6028 30.1397C20.6028 30.1397 20.6028 30.1397 20.6507 30.1397C20.6986 30.1397 20.6986 30.1397 20.7465 30.1397L30.5229 25.7587C30.6187 25.7084 30.6667 25.6076 30.6667 25.5573V0.378934C30.6187 0.278221 30.5708 0.227864 30.475 0.177508ZM20.2673 29.5355L10.9222 25.3559V24.3487C10.9222 24.1977 10.8264 24.0969 10.6826 24.0969C10.5389 24.0969 10.443 24.1977 10.443 24.3487V25.3559L1.14589 29.5355V4.91104L10.4909 0.731431V4.55854C10.4909 4.70961 10.5868 4.81032 10.7306 4.81032C10.8743 4.81032 10.9702 4.70961 10.9702 4.55854V0.731431L20.3152 4.91104V29.5355H20.2673ZM30.1395 25.3559L20.7944 29.5355V4.91104L30.1395 0.731431V25.3559Z" fill="#231F20"/>
<path d="M10.7306 21.5791C10.5868 21.5791 10.4909 21.6798 10.4909 21.8309V23.6437C10.4909 23.7948 10.5868 23.8955 10.7306 23.8955C10.8743 23.8955 10.9702 23.7948 10.9702 23.6437V21.8309C10.9702 21.6798 10.8264 21.5791 10.7306 21.5791Z" fill="#231F20"/>
<path d="M8.04685 10.7524C8.04685 12.2631 9.24493 13.4717 10.7306 13.4717C12.2162 13.4717 13.4143 12.2631 13.4143 10.7524C13.4143 9.24172 12.2162 8.03316 10.7306 8.03316C9.24493 8.03316 8.04685 9.29207 8.04685 10.7524ZM12.8871 10.7524C12.8871 11.961 11.8807 12.9681 10.6826 12.9681C9.48455 12.9681 8.47816 11.961 8.47816 10.7524C8.47816 9.54386 9.48455 8.53672 10.6826 8.53672C11.9286 8.53672 12.8871 9.54386 12.8871 10.7524Z" fill="#231F20"/>
<path d="M5.12352 10.7524C5.12352 13.7738 10.2992 20.723 10.4909 21.0252C10.5389 21.0755 10.5868 21.1259 10.6826 21.1259C10.7785 21.1259 10.8264 21.0755 10.8743 21.0252C11.1139 20.723 16.2417 13.8242 16.2417 10.7524C16.2417 7.63029 13.7497 5.11246 10.6826 5.11246C7.61554 5.11246 5.12352 7.63029 5.12352 10.7524ZM15.8104 10.7524C15.8104 13.3206 11.6411 19.162 10.6826 20.4712C9.77209 19.2123 5.55485 13.3206 5.55485 10.7524C5.55485 7.88208 7.85516 5.56567 10.6826 5.56567C13.5101 5.61602 15.8104 7.93243 15.8104 10.7524Z" fill="#231F20"/>
</svg>
