<svg width="30" height="30" viewBox="0 0 30 30" fill="none" xmlns="http://www.w3.org/2000/svg">
<path d="M20.7021 20.628H9.29794C8.73287 20.628 8.32191 21.0628 8.32191 21.5459V23.7681C8.32191 24.2995 8.78424 24.686 9.29794 24.686H20.7021C21.2671 24.686 21.6781 24.2512 21.6781 23.7681V21.5459C21.6781 21.0145 21.2157 20.628 20.7021 20.628ZM21.1644 23.7681C21.1644 24.0097 20.9589 24.2029 20.7021 24.2029H9.29794C9.04109 24.2029 8.83561 24.0097 8.83561 23.7681V21.5459C8.83561 21.3043 9.04109 21.1111 9.29794 21.1111H20.7021C20.9589 21.1111 21.1644 21.3043 21.1644 21.5459V23.7681Z" fill="#231F20"/>
<path d="M19.2123 21.8357H10.7363C10.5822 21.8357 10.4794 21.9324 10.4794 22.0773C10.4794 22.2222 10.5822 22.3188 10.7363 22.3188H17.774L17.6712 22.9952C17.6712 23.0918 17.6712 23.1884 17.774 23.285C17.8253 23.3816 17.9794 23.43 18.0822 23.43H18.5445C18.6473 23.43 18.75 23.3816 18.8527 23.285C18.9041 23.1884 18.9555 23.0918 18.9555 22.9952L18.8527 22.3188H19.2123C19.3664 22.3188 19.4692 22.2222 19.4692 22.0773C19.4692 21.9807 19.3151 21.8357 19.2123 21.8357ZM18.2363 22.9952L18.339 22.3671L18.4418 22.9952H18.2363Z" fill="#231F20"/>
<path d="M28.4589 18.9855H26.4041L26.1986 17.6329L25.2226 14.4928C25.1199 14.2029 24.8116 14.0097 24.5034 14.0097H24.0925C24.2466 13.7198 24.3493 13.43 24.4521 13.1401H27.9966C29.1267 13.0435 30 11.2077 30 8.84058C30 6.42512 29.0753 4.49276 27.8938 4.49276C27.8425 4.49276 27.8425 4.49276 27.7911 4.49276H23.476L24.1952 2.22222C24.2979 1.78744 24.2466 1.35266 24.0411 1.01449C23.8356 0.628019 23.476 0.386474 23.0137 0.241546L22.2432 0.0483088C21.7808 -0.0483096 21.3185 1.09419e-06 20.9589 0.193238C20.5479 0.386475 20.2911 0.724639 20.137 1.15942L19.161 4.29952C19.161 4.39614 19.1096 4.44445 19.1096 4.54106H16.1301C15.976 4.25121 15.6678 4.05797 15.3082 4.05797H14.7432C14.3836 4.05797 14.0753 4.25121 13.9212 4.54106H10.9418C10.9418 4.49275 10.8904 4.44444 10.8904 4.39614L9.91439 1.15942C9.81165 0.724639 9.50343 0.386475 9.09247 0.193238C8.68151 1.09419e-06 8.21918 -0.0483096 7.80822 0.0483088L7.03767 0.241546C6.11302 0.483092 5.59932 1.40097 5.85617 2.22222L6.57534 4.49276H2.15754C1.84932 4.49276 1.38699 4.63768 0.924659 5.31401C0.873289 5.41063 0.873288 5.55556 1.0274 5.65218C1.07877 5.70049 1.13014 5.70049 1.18151 5.70049C1.28425 5.70049 1.33562 5.65217 1.38699 5.60386C1.5411 5.31401 1.84932 5.02416 2.20891 5.02416H10.7877C10.7877 5.02416 10.7877 5.02416 10.839 5.02416C10.839 5.02416 10.839 5.02416 10.8904 5.02416H13.9212V8.69565H7.24315C6.21575 8.69565 5.39384 9.4686 5.39384 10.4348V12.029C5.39384 12.2705 5.39383 12.4638 5.4452 12.7053H2.05479C1.28425 12.7053 0.46233 11.1111 0.46233 8.84058C0.46233 8.01933 0.565068 7.24638 0.770548 6.61836C0.821918 6.47343 0.71918 6.37681 0.616441 6.3285C0.462331 6.28019 0.359588 6.37681 0.308218 6.47343C0.102739 7.14976 0 7.97102 0 8.84058C0 11.256 0.924657 13.1884 2.10616 13.1884H5.59932C5.70206 13.4783 5.80479 13.7681 5.9589 14.058H5.54795C5.23973 14.058 4.93151 14.2512 4.82877 14.5411L3.85274 17.6812L3.64726 18.9855H1.59246C1.18151 18.9855 0.87329 19.2754 0.87329 19.6618V24.2995C0.87329 25.1691 1.5411 25.942 2.41439 26.1836L2.31164 26.6667C2.2089 27.5362 2.41438 28.3575 3.03082 28.9855C3.64726 29.6135 4.46918 30 5.4452 30H24.6062C25.5822 30 26.4555 29.6618 27.0205 28.9855C27.5856 28.3575 27.8425 27.5362 27.7397 26.6667L27.637 26.1836C28.5103 25.942 29.1781 25.1691 29.1781 24.2995V19.6618C29.1781 19.2754 28.8185 18.9855 28.4589 18.9855ZM29.4863 8.79227C29.4863 11.0628 28.6644 12.657 27.8938 12.657C27.1233 12.657 26.3014 11.0628 26.3014 8.79227C26.3014 6.61836 27.0719 5.07247 27.7911 4.92754H27.9452C28.7158 5.07247 29.4863 6.61836 29.4863 8.79227ZM19.6233 4.39614L20.5993 1.25604C20.7021 0.966183 20.9075 0.72464 21.1644 0.579713C21.4726 0.434785 21.7808 0.386474 22.089 0.483092L22.8596 0.67633C23.5274 0.869566 23.887 1.49759 23.6815 2.0773L22.911 4.49276H19.5719C19.5719 4.44445 19.6233 4.44444 19.6233 4.39614ZM14.2808 4.87923C14.2808 4.63768 14.4863 4.44445 14.7432 4.44445H15.3082C15.5651 4.44445 15.7706 4.63768 15.7706 4.87923V8.59904H14.3322V4.87923H14.2808ZM6.26713 2.0773C6.16439 1.78744 6.21575 1.49758 6.36986 1.20773C6.52397 0.917875 6.78082 0.724639 7.08904 0.67633L7.85959 0.483092C8.16781 0.386474 8.47603 0.434785 8.78425 0.579713C9.09247 0.72464 9.29795 0.966183 9.34932 1.25604L10.3253 4.39614L10.3767 4.49276H7.03767L6.26713 2.0773ZM16.1815 4.97585H26.9178C26.25 5.70049 25.7877 7.10145 25.7877 8.84058C25.7877 10.5314 26.25 11.9807 26.9178 12.7053H24.5034C24.5548 12.4638 24.5548 12.2705 24.5548 12.029V10.4348C24.5548 9.4686 23.7329 8.69565 22.7055 8.69565H16.1815V4.97585V4.97585ZM5.85617 10.3865C5.85617 9.66184 6.4726 9.08213 7.24315 9.08213H22.7055C23.476 9.08213 24.0925 9.66184 24.0925 10.3865V11.9807C24.0925 14.2512 22.1404 16.0387 19.7774 16.0387H19.6233V14.2995C19.6233 14.1546 19.5206 14.058 19.3664 14.058C19.2123 14.058 19.1096 14.1546 19.1096 14.2995V16.0387H10.9418V14.2995C10.9418 14.1546 10.839 14.058 10.6849 14.058C10.5308 14.058 10.4281 14.1546 10.4281 14.2995V16.0387H10.2226C7.80822 16.0387 5.90753 14.2029 5.90753 11.9807V10.3865H5.85617ZM1.28425 24.3478V19.7101C1.28425 19.5652 1.38699 19.4686 1.5411 19.4686H3.49315L2.41439 25.7488C1.74658 25.5556 1.28425 24.9758 1.28425 24.3478ZM26.661 28.6957C26.1473 29.2271 25.4281 29.5169 24.6062 29.5169H5.34247C4.52055 29.5169 3.80137 29.2271 3.28767 28.6957C2.82534 28.1643 2.61986 27.4879 2.7226 26.7633L4.2637 17.7778L5.18836 14.6377C5.23973 14.5411 5.34247 14.4928 5.4452 14.4928H6.16438C7.03767 15.7488 8.5274 16.5701 10.2226 16.5701H10.3767V18.1643C10.3767 18.3092 10.4795 18.4058 10.6336 18.4058C10.7877 18.4058 10.8904 18.3092 10.8904 18.1643V16.5701H19.0582V18.1643C19.0582 18.3092 19.161 18.4058 19.3151 18.4058C19.4692 18.4058 19.5719 18.3092 19.5719 18.1643V16.5701H19.726C21.4212 16.5701 22.911 15.7488 23.7842 14.4928H24.5034C24.6062 14.4928 24.7089 14.5411 24.7603 14.6377L25.6849 17.7295L27.226 26.715C27.3288 27.4879 27.1233 28.1643 26.661 28.6957ZM28.6644 24.3478C28.6644 25.0242 28.2021 25.5556 27.5342 25.7488L26.4555 19.4686H28.4075C28.5616 19.4686 28.6644 19.5652 28.6644 19.7101V24.3478V24.3478Z" fill="#231F20"/>
</svg>
