<svg width="31" height="31" viewBox="0 0 31 31" fill="none" xmlns="http://www.w3.org/2000/svg">
<path d="M30.1438 11.2687C30.3256 11.2687 30.4469 11.1729 30.4469 11.0291V3.601C30.4469 3.45723 30.3256 3.36138 30.1438 3.36138H18.8711V0.485985C18.8711 0.342215 18.7499 0.246368 18.5681 0.246368H12.3862C12.2044 0.246368 12.0832 0.342215 12.0832 0.485985V3.36138H7.962C7.9014 3.36138 7.8408 3.36138 7.78019 3.40931L0.568064 7.05148C0.507458 7.0994 0.446854 7.14733 0.446854 7.24317C0.446854 7.33902 0.507458 7.38694 0.568064 7.43487L7.78019 11.2208C7.8408 11.2687 7.9014 11.2687 7.962 11.2687H12.0226V13.6649H0.749884C0.568066 13.6649 0.446854 13.7607 0.446854 13.9045V21.3326C0.446854 21.4764 0.568066 21.5722 0.749884 21.5722H12.0226V29.7671H4.14383C3.96201 29.7671 3.8408 29.863 3.8408 30.0068C3.8408 30.1505 3.96201 30.2464 4.14383 30.2464H12.3256H18.5075H23.2347C23.4166 30.2464 23.5378 30.1505 23.5378 30.0068C23.5378 29.863 23.4166 29.7671 23.2347 29.7671H18.8105V21.5722H22.9317C22.9923 21.5722 23.0529 21.5722 23.1135 21.5243L30.3256 17.8822C30.3863 17.8342 30.4469 17.7863 30.4469 17.6905C30.4469 17.5946 30.3863 17.5467 30.3256 17.4988L23.1135 13.7128C23.0529 13.6649 22.9923 13.6649 22.9317 13.6649H18.8711V11.2687H30.1438ZM12.6287 0.725602H13.4772V2.21122C13.4772 2.35499 13.5984 2.45084 13.7802 2.45084C13.962 2.45084 14.0832 2.35499 14.0832 2.21122V0.725602H18.2044V3.36138H12.6287V0.725602V0.725602ZM1.29533 7.24317L8.02261 3.84062H12.2044C12.265 3.84062 12.265 3.88854 12.3256 3.88854C12.3863 3.88854 12.4469 3.88854 12.4469 3.84062H18.3256C18.3862 3.84062 18.3862 3.88854 18.4469 3.88854C18.5075 3.88854 18.5681 3.88854 18.5681 3.84062H29.8408V10.7895H8.08322L1.29533 7.24317ZM12.6287 11.2687H16.6893V13.6649H12.6287V11.2687ZM18.265 29.7671H14.0832V26.3167C14.0832 26.1729 13.962 26.077 13.7802 26.077C13.5984 26.077 13.4772 26.1729 13.4772 26.3167V29.7671H12.6287V21.5722H16.6893V22.7703C16.6893 22.9141 16.8105 23.0099 16.9923 23.0099C17.1741 23.0099 17.2953 22.9141 17.2953 22.7703V21.5722H18.2044V29.7671H18.265ZM29.5984 17.6905L22.8711 21.093H1.05291V14.1441H22.8105L29.5984 17.6905ZM18.265 13.6649H17.3559V11.2687H18.265V13.6649Z" fill="#231F20"/>
<path d="M23.4166 7.00356H7.7802C7.59838 7.00356 7.47717 7.0994 7.47717 7.24317C7.47717 7.38694 7.59838 7.48279 7.7802 7.48279H23.1135V7.96202C23.1135 8.10579 23.2347 8.20164 23.4166 8.20164C23.5984 8.20164 23.7196 8.10579 23.7196 7.96202V7.24317C23.7196 7.14733 23.5984 7.00356 23.4166 7.00356Z" fill="#231F20"/>
<path d="M28.0832 7.00356H25.4166C25.2347 7.00356 25.1135 7.0994 25.1135 7.24317C25.1135 7.38694 25.2347 7.48279 25.4166 7.48279H28.0832C28.265 7.48279 28.3863 7.38694 28.3863 7.24317C28.3863 7.0994 28.265 7.00356 28.0832 7.00356Z" fill="#231F20"/>
<path d="M7.47716 17.8821H23.1135C23.2953 17.8821 23.4165 17.7863 23.4165 17.6425C23.4165 17.4988 23.2953 17.4029 23.1135 17.4029H7.47716C7.29535 17.4029 7.17413 17.4988 7.17413 17.6425C7.17413 17.7863 7.29535 17.8821 7.47716 17.8821Z" fill="#231F20"/>
<path d="M2.81049 17.8821H5.47716C5.65898 17.8821 5.78019 17.7863 5.78019 17.6425C5.78019 17.4988 5.65898 17.4029 5.47716 17.4029H2.81049C2.62867 17.4029 2.50746 17.4988 2.50746 17.6425C2.50746 17.7863 2.62867 17.8821 2.81049 17.8821Z" fill="#231F20"/>
<path d="M26.8105 29.7671H24.9317C24.7499 29.7671 24.6287 29.863 24.6287 30.0068C24.6287 30.1505 24.7499 30.2464 24.9317 30.2464H26.8105C26.9923 30.2464 27.1135 30.1505 27.1135 30.0068C27.1135 29.863 26.9923 29.7671 26.8105 29.7671Z" fill="#231F20"/>
</svg>
