<svg width="30" height="30" viewBox="0 0 30 30" fill="none" xmlns="http://www.w3.org/2000/svg">
    <path d="m5.127 25.078 3.955-1.318.704.322c1.601.821 3.34 1.231 5.215 1.231 3.184-.097 5.835-1.137 7.954-3.12 2.118-1.982 3.217-4.38 3.296-7.192-.078-2.813-1.177-5.21-3.296-7.193-2.12-1.982-4.771-3.022-7.954-3.12-3.184.098-5.835 1.138-7.954 3.12-2.119 1.983-3.217 4.38-3.296 7.193 0 1.016.176 2.022.528 3.018.352.996.87 1.934 1.552 2.812l.645.85-1.349 3.397zM3.78 27.481c-.371.117-.689.034-.952-.25-.264-.283-.328-.61-.19-.981l1.699-4.278a12.711 12.711 0 0 1-1.817-3.325 10.59 10.59 0 0 1-.645-3.648c.078-3.222 1.328-6.03 3.75-8.422 2.422-2.393 5.547-3.648 9.375-3.765 3.828.117 6.953 1.372 9.375 3.765 2.422 2.392 3.672 5.2 3.75 8.422-.078 3.223-1.328 6.03-3.75 8.423-2.422 2.392-5.547 3.647-9.375 3.765-2.129 0-4.15-.47-6.065-1.407l-5.155 1.7zM15 16.494a1.418 1.418 0 0 1-1.29-.747 1.513 1.513 0 0 1-.204-.747c0-.254.068-.503.205-.747A1.418 1.418 0 0 1 15 13.506c.43 0 .787.141 1.07.424.283.283.424.64.424 1.07 0 .43-.141.787-.424 1.07-.284.283-.64.424-1.07.424zm5.625 0a1.418 1.418 0 0 1-1.29-.747 1.513 1.513 0 0 1-.204-.747c0-.254.068-.503.205-.747a1.418 1.418 0 0 1 1.289-.747c.43 0 .787.141 1.07.424.283.283.424.64.424 1.07 0 .43-.141.787-.424 1.07-.284.283-.64.424-1.07.424zm-11.25 0a1.418 1.418 0 0 1-1.29-.747A1.513 1.513 0 0 1 7.882 15c0-.254.068-.503.205-.747a1.418 1.418 0 0 1 1.289-.747c.43 0 .787.141 1.07.424.283.283.424.64.424 1.07 0 .43-.141.787-.424 1.07-.284.283-.64.424-1.07.424z" fill="#08080A" fill-opacity=".96"/>
</svg>
