<svg width="54" height="54" viewBox="0 0 54 54" fill="none" xmlns="http://www.w3.org/2000/svg">
    <circle cx="27" cy="27" r="27" fill="#4857EC" fill-opacity=".1"/>
    <path d="M31.08 31.423c-1.198 1.109-2.822 1.732-4.515 1.732-1.694 0-3.318-.623-4.516-1.732m-.275-7.138h.016m9.565 0h.016m9.564 2.957c0 1.747-.371 3.478-1.093 5.092a13.29 13.29 0 0 1-3.116 4.317 14.497 14.497 0 0 1-4.662 2.885 15.375 15.375 0 0 1-5.5 1.013c-1.887 0-3.756-.344-5.499-1.013a14.498 14.498 0 0 1-4.662-2.885 13.29 13.29 0 0 1-3.115-4.317 12.457 12.457 0 0 1-1.095-5.092c0-3.529 1.515-6.914 4.21-9.41 2.695-2.495 6.35-3.897 10.162-3.897 3.81 0 7.466 1.402 10.161 3.898 2.695 2.495 4.21 5.88 4.21 9.41z" stroke="#4857EC" stroke-width="3" stroke-linecap="round" stroke-linejoin="round"/>
</svg>
