<svg width="30" height="30" viewBox="0 0 30 30" fill="none" xmlns="http://www.w3.org/2000/svg">
    <path d="M15 15c1.602-.04 2.93-.586 3.984-1.64 1.055-1.055 1.602-2.383 1.641-3.985-.04-1.602-.586-2.93-1.64-3.984C17.93 4.336 16.601 3.789 15 3.75c-1.602.04-2.93.586-3.984 1.64C9.96 6.446 9.414 7.774 9.375 9.376c.04 1.602.586 2.93 1.64 3.984C12.07 14.414 13.399 14.961 15 15zm0 1.875c-2.129-.059-3.896-.791-5.303-2.197C8.291 13.27 7.56 11.504 7.5 9.375c.059-2.129.791-3.896 2.197-5.303C11.104 2.667 12.871 1.934 15 1.875c2.129.059 3.896.791 5.302 2.197 1.407 1.407 2.14 3.174 2.198 5.303-.059 2.129-.791 3.896-2.198 5.303-1.406 1.406-3.173 2.138-5.302 2.197zM15 15c.274 0 .498.088.674.263.176.176.264.4.264.675v7.5a.913.913 0 0 1-.264.674.913.913 0 0 1-.674.263.913.913 0 0 1-.674-.263.913.913 0 0 1-.264-.674v-7.5c0-.274.088-.499.264-.675A.913.913 0 0 1 15 15zm-3.75 4.013v1.904c-1.7.294-3.057.68-4.072 1.157-1.016.478-1.534.933-1.553 1.363.059.605.962 1.215 2.71 1.83 1.748.616 3.97.943 6.665.982 2.696-.04 4.917-.366 6.665-.982 1.747-.614 2.65-1.225 2.71-1.83-.02-.43-.537-.885-1.552-1.363-1.016-.478-2.374-.863-4.073-1.157v-1.904c2.227.332 4.024.894 5.39 1.685 1.367.791 2.07 1.704 2.11 2.74-.078 1.328-1.177 2.431-3.296 3.31-2.12.879-4.77 1.338-7.954 1.377-3.184-.04-5.835-.498-7.954-1.377-2.119-.879-3.217-1.982-3.296-3.31.04-1.035.742-1.949 2.11-2.74 1.366-.791 3.163-1.353 5.39-1.685z" fill="#08080A" fill-opacity=".96"/>
</svg>
