<svg width="30" height="30" viewBox="0 0 30 30" fill="none" xmlns="http://www.w3.org/2000/svg">
<path d="M29.7692 29.1361H28.7077L22.9385 12.3298C24.6923 11.8586 26.0308 9.26702 26.0308 6.20419C26.0308 2.74869 24.4154 0 22.3846 0C20.3538 0 18.7385 2.74869 18.7385 6.20419C18.7385 7.30366 18.9231 8.40314 19.2461 9.42408L16.4308 17.5916L11.0308 1.80628C11.0308 1.80628 11.0308 1.80628 11.0308 1.72775C10.9385 1.49215 10.7077 1.49215 10.6154 1.72775V1.80628L1.2923 29.0576C1.2923 29.1361 1.24615 29.1361 1.24615 29.2147H0.230769C0.0923077 29.2147 0 29.3717 0 29.6073C0 29.8429 0.0923077 30 0.230769 30H29.7692C29.9077 30 30 29.8429 30 29.6073C30 29.3717 29.9077 29.1361 29.7692 29.1361ZM19.2 6.20419C19.2 3.2199 20.6308 0.78534 22.3846 0.78534C24.1385 0.78534 25.5692 3.2199 25.5692 6.20419C25.5692 9.03141 24.3231 11.3089 22.6615 11.623L20.7692 6.12565C20.7692 6.12565 20.7692 6.12566 20.7692 6.04712C20.6769 5.81152 20.4461 5.81152 20.3538 6.04712V6.12565L19.5231 8.56021C19.3385 7.8534 19.2 7.06806 19.2 6.20419ZM17.6769 15.6283H17.7231H18.6C18.7385 15.6283 18.8308 15.4712 18.8308 15.2356C18.8308 15 18.7385 14.8429 18.6 14.8429H17.9077L18.2308 13.9005H18.2769H19.7538C19.8923 13.9005 19.9846 13.7435 19.9846 13.5079C19.9846 13.2723 19.8923 13.1152 19.7538 13.1152H18.5077L20.6308 6.98953L28.2 29.1361H20.4C20.4 29.0576 20.4 29.0576 20.3538 28.9791L16.7077 18.377L17.6769 15.6283ZM2.67692 26.5445H6.83076C6.96923 26.5445 7.06153 26.3874 7.06153 26.1518C7.06153 25.9162 6.96923 25.7592 6.83076 25.7592H2.95384L3.32307 24.6597H5.39999C5.53845 24.6597 5.63076 24.5026 5.63076 24.267C5.63076 24.0314 5.53845 23.8743 5.39999 23.8743H3.59999L10.8 2.74869L19.8462 29.2147H1.75384L2.67692 26.5445Z" fill="#231F20"/>
<path d="M8.90769 25.7592H7.8923C7.75384 25.7592 7.66153 25.9162 7.66153 26.1518C7.66153 26.3874 7.75384 26.5445 7.8923 26.5445H8.90769C9.04615 26.5445 9.13846 26.3874 9.13846 26.1518C9.13846 25.9162 9.04615 25.7592 8.90769 25.7592Z" fill="#231F20"/>
</svg>
