<svg width="31" height="31" viewBox="0 0 31 31" fill="none" xmlns="http://www.w3.org/2000/svg">
<path d="M16.6016 4.60922C16.5462 4.36884 16.3802 4.17653 16.2141 4.0323C16.9337 3.74384 17.4318 3.11884 17.4318 2.39768C17.4318 1.38807 16.4909 0.618835 15.3839 0.618835C14.2215 0.618835 13.3359 1.43614 13.3359 2.39768C13.3359 3.11884 13.8341 3.74384 14.5536 4.0323C14.3876 4.17653 14.2215 4.36884 14.1662 4.60922C6.47255 5.13807 0.384064 10.7631 0.384064 17.59C0.384064 24.8015 7.13675 30.6188 15.3839 30.6188C23.631 30.6188 30.3837 24.7534 30.3837 17.59C30.439 10.7631 24.3506 5.13807 16.6016 4.60922ZM13.8894 2.39768C13.8894 1.67653 14.5536 1.0996 15.3839 1.0996C16.2141 1.0996 16.8783 1.67653 16.8783 2.39768C16.8783 3.11884 16.2141 3.69576 15.3839 3.69576C14.5536 3.69576 13.8894 3.11884 13.8894 2.39768ZM15.9927 4.56114C15.7713 4.56114 15.6053 4.56114 15.3839 4.56114C15.1625 4.56114 14.9964 4.56114 14.775 4.56114C14.8857 4.36884 15.1071 4.2246 15.3839 4.2246C15.6606 4.2246 15.882 4.36884 15.9927 4.56114ZM15.3839 30.1861C7.4135 30.1861 0.937562 24.5611 0.937562 17.6381C0.937562 10.715 7.4135 5.04191 15.3839 5.04191C23.3543 5.04191 29.8302 10.6669 29.8302 17.59C29.8302 24.5131 23.4096 30.1861 15.3839 30.1861Z" fill="#231F20"/>
<path d="M15.3839 5.81114C7.85628 5.81114 1.76779 11.0996 1.76779 17.6381C1.76779 24.1765 7.85628 29.465 15.3839 29.465C22.9114 29.465 28.9999 24.1765 28.9999 17.6381C28.9999 11.0996 22.9114 5.81114 15.3839 5.81114ZM15.6606 28.9361V27.4938C15.6606 27.3496 15.5499 27.2534 15.3839 27.2534C15.2178 27.2534 15.1071 27.3496 15.1071 27.4938V28.9361C8.13303 28.84 2.48734 23.9361 2.37664 17.8304H4.03714C4.20319 17.8304 4.31389 17.7342 4.31389 17.59C4.31389 17.4458 4.20319 17.3496 4.03714 17.3496H2.37664C2.54269 11.2919 8.18838 6.38806 15.1625 6.24383V7.68614C15.1625 7.83037 15.2732 7.92653 15.4392 7.92653C15.6053 7.92653 15.716 7.83037 15.716 7.68614V6.24383C22.69 6.38806 28.3357 11.2919 28.4464 17.3496H26.7859C26.6199 17.3496 26.5092 17.4458 26.5092 17.59C26.5092 17.7342 26.6199 17.8304 26.7859 17.8304H28.4464C28.3357 23.9361 22.69 28.84 15.6606 28.9361Z" fill="#231F20"/>
<path d="M22.4133 11.1958L14.7197 16.1477C14.4983 16.2438 14.2769 16.34 14.1108 16.4842C13.9448 16.6284 13.7787 16.8208 13.7234 17.0131L8.02235 23.6958C7.967 23.7919 7.967 23.9361 8.02235 24.0323C8.0777 24.0804 8.13305 24.0804 8.24375 24.0804C8.2991 24.0804 8.35445 24.0804 8.4098 24.0323L16.0481 19.0804C16.2695 18.9842 16.4909 18.8881 16.7123 18.6958C16.8783 18.5515 17.0444 18.3592 17.0997 18.1669L22.8008 11.5323C22.8561 11.4361 22.8561 11.2919 22.8008 11.1958C22.7454 11.0996 22.524 11.0996 22.4133 11.1958ZM9.62749 22.6381L13.668 17.9265C13.7234 18.215 13.8894 18.5035 14.1662 18.6958C14.4429 18.9361 14.7197 19.0323 15.0518 19.1284L9.62749 22.6381ZM16.6016 17.9746L16.3248 18.3111L15.7713 18.6477C15.3285 18.7438 14.8857 18.6958 14.4983 18.3592C14.1662 18.0708 14.0555 17.6381 14.2215 17.2535L14.5536 16.8688L14.9964 16.5804C15.1071 16.5323 15.2732 16.5323 15.3839 16.5323C15.716 16.5323 16.0481 16.6284 16.2695 16.8688C16.6569 17.1573 16.7676 17.59 16.6016 17.9746ZM17.1551 17.3015C17.0997 17.0131 16.9337 16.7246 16.6569 16.5323C16.3802 16.2919 16.1034 16.1477 15.7713 16.0996L21.1956 12.59L17.1551 17.3015Z" fill="#231F20"/>
</svg>
