<svg width="31" height="31" viewBox="0 0 31 31" fill="none" xmlns="http://www.w3.org/2000/svg">
<path d="M17.7122 2.87C17.6166 2.77437 17.4731 2.77437 17.3775 2.87L14.3171 5.93037L14.2215 6.02601C14.2215 6.02601 14.1737 6.07383 14.1737 6.12165L12.2609 10.5209C12.2131 10.6166 12.2609 10.7122 12.3087 10.8078L12.9782 11.4773L1.16709 23.2884C0.928002 23.5275 0.832359 23.8144 0.832359 24.1013C0.832359 24.3882 0.97582 24.723 1.16709 24.9142L6.28364 30.0308C6.52273 30.2699 6.80965 30.3655 7.09656 30.3655C7.38347 30.3655 7.7182 30.2699 7.90948 30.0308L19.7206 18.2197L20.39 18.8891C20.4379 18.9369 20.4857 18.9369 20.5813 18.9369C20.6291 18.9369 20.6291 18.9369 20.677 18.9369L25.1719 16.9764C25.2197 16.9764 25.2197 16.9286 25.2675 16.9286L28.3757 13.8204C28.4713 13.7248 28.4713 13.5813 28.3757 13.4857L17.7122 2.87ZM7.62256 29.7439C7.33565 30.0308 6.90529 30.0308 6.61838 29.7439L1.50181 24.6273C1.35836 24.4839 1.31054 24.3404 1.31054 24.1491C1.31054 23.9579 1.40618 23.7666 1.50181 23.671L13.3129 11.8598L19.4337 17.9806L7.62256 29.7439ZM25.1241 16.4504L24.3111 15.6375C24.2155 15.5419 24.072 15.5419 23.9764 15.6375C23.8808 15.7331 23.8808 15.8766 23.9764 15.9722L24.7415 16.7373L20.677 18.5066L19.9597 17.7893L13.5042 11.3338L12.7869 10.6166L14.5562 6.55201L22.8766 14.8724L22.3984 15.3506C22.3028 15.4462 22.3028 15.5897 22.3984 15.6853C22.4462 15.7331 22.494 15.7331 22.5897 15.7331C22.6853 15.7331 22.7331 15.7331 22.781 15.6853L23.4026 15.0637C23.4504 15.0158 23.4504 14.968 23.4504 14.8724C23.4504 14.8246 23.4026 14.7289 23.4026 14.6811L14.8909 6.16947L17.6166 3.44382L27.9453 13.7726L25.1241 16.4504Z" fill="#231F20"/>
<path d="M10.3004 18.937C10.2048 19.0326 10.2048 19.176 10.3004 19.2717L11.9262 20.8975C11.974 20.9453 12.0218 20.9453 12.1175 20.9453C12.2131 20.9453 12.2609 20.8975 12.3088 20.8975L15.3691 17.8371C15.4648 17.7415 15.4648 17.598 15.3691 17.5024L13.7433 15.8766C13.6955 15.8288 13.6477 15.8288 13.552 15.8288C13.4564 15.8288 13.4086 15.8766 13.3608 15.8766L10.3004 18.937ZM14.8431 17.6937L12.1175 20.4193L10.8264 19.1282L13.552 16.4026L14.8431 17.6937Z" fill="#231F20"/>
<path d="M25.937 5.54783C25.9848 5.54783 26.0804 5.54783 26.1282 5.50001L29.3799 2.24837C29.4755 2.15273 29.4755 2.00928 29.3799 1.91364C29.2843 1.818 29.1408 1.818 29.0452 1.91364L25.7935 5.16528C25.6979 5.26092 25.6979 5.40437 25.7935 5.50001C25.7935 5.50001 25.8892 5.54783 25.937 5.54783Z" fill="#231F20"/>
<path d="M22.9722 3.73074C23.0201 3.73074 23.02 3.73074 23.0679 3.73074C23.1635 3.73074 23.2591 3.68292 23.307 3.58728L24.5024 0.718183C24.5502 0.574728 24.5024 0.479093 24.359 0.383456C24.2155 0.335638 24.1199 0.383454 24.0242 0.526909L22.8288 3.39601C22.8288 3.53946 22.8766 3.68292 22.9722 3.73074Z" fill="#231F20"/>
<path d="M30.8144 6.88674C30.7666 6.74329 30.6232 6.69547 30.4797 6.74328L27.6106 7.93874C27.4671 7.98656 27.4193 8.13002 27.4672 8.27347C27.515 8.36911 27.6106 8.41692 27.7062 8.41692C27.7541 8.41692 27.7541 8.41692 27.8019 8.41692L30.671 7.22147C30.8144 7.12583 30.8622 6.98238 30.8144 6.88674Z" fill="#231F20"/>
</svg>
