<svg width="18" height="16" viewBox="0 0 18 16" fill="none" xmlns="http://www.w3.org/2000/svg">
    <path d="M9.641 1.537c-.25-.716-1.345-.716-1.597 0L6.768 5.172a.784.784 0 0 1-.305.389.886.886 0 0 1-.494.148H1.842c-.813 0-1.153.964-.494 1.408l3.34 2.246c.143.096.25.232.304.389a.723.723 0 0 1 0 .48l-1.275 3.635c-.252.717.634 1.313 1.292.87l3.34-2.246a.885.885 0 0 1 .493-.149c.178 0 .35.052.494.149l3.34 2.246c.658.443 1.544-.153 1.292-.87l-1.275-3.635a.723.723 0 0 1 0-.48.784.784 0 0 1 .305-.39l3.34-2.245c.657-.444.32-1.408-.495-1.408h-4.128a.886.886 0 0 1-.493-.149.784.784 0 0 1-.305-.388L9.641 1.537z" stroke="#F9C94E" stroke-linecap="round" stroke-linejoin="round"/>
</svg>
