<svg width="13" height="15" viewBox="0 0 13 15" fill="none" xmlns="http://www.w3.org/2000/svg">
<path d="M11.8336 6.34975L1.7086 0.169277C1.53994 0.0623998 1.34517 0.00390907 1.14554 0.000189205C0.945905 -0.00353066 0.749086 0.0476634 0.576567 0.148183C0.401497 0.244235 0.255553 0.385698 0.154091 0.557689C0.0526288 0.72968 -0.000600085 0.925839 5.10353e-06 1.12553V13.5005C-0.000600085 13.7002 0.0526288 13.8964 0.154091 14.0684C0.255553 14.2404 0.401497 14.3818 0.576567 14.4779C0.749086 14.5784 0.945905 14.6296 1.14554 14.6259C1.34517 14.6221 1.53994 14.5637 1.7086 14.4568L11.8336 8.27631C11.9996 8.17619 12.1368 8.0349 12.2321 7.86613C12.3274 7.69736 12.3775 7.50684 12.3775 7.31303C12.3775 7.11922 12.3274 6.92869 12.2321 6.75992C12.1368 6.59115 11.9996 6.44986 11.8336 6.34975Z" fill="black"/>
</svg>
